<svg xmlns="http://www.w3.org/2000/svg" xmlns:xlink="http://www.w3.org/1999/xlink" version="1.1" width="256" height="256" viewBox="0 0 256 256" xml:space="preserve"><defs></defs>
	<g style="stroke: none; stroke-width: 0; stroke-dasharray: none; stroke-linecap: butt; stroke-linejoin: miter; stroke-miterlimit: 10; fill: none; fill-rule: nonzero; opacity: 1;" transform="translate(1.4065934065934016 1.4065934065934016) scale(2.81 2.81)" >
		<rect x="34.85" y="69.29" rx="0" ry="0" width="20.3" height="11.43" style="stroke: none; stroke-width: 1; stroke-dasharray: none; stroke-linecap: butt; stroke-linejoin: miter; stroke-miterlimit: 10; fill: rgb(255,226,122); fill-rule: nonzero; opacity: 1;" transform=" matrix(1 0 0 1 0 0) "/>
		<rect x="68.7" y="69.29" rx="0" ry="0" width="20.3" height="11.43" style="stroke: none; stroke-width: 1; stroke-dasharray: none; stroke-linecap: butt; stroke-linejoin: miter; stroke-miterlimit: 10; fill: rgb(255,226,122); fill-rule: nonzero; opacity: 1;" transform=" matrix(1 0 0 1 0 0) "/>
		<rect x="1" y="69.29" rx="0" ry="0" width="20.3" height="11.43" style="stroke: none; stroke-width: 1; stroke-dasharray: none; stroke-linecap: butt; stroke-linejoin: miter; stroke-miterlimit: 10; fill: rgb(255,226,122); fill-rule: nonzero; opacity: 1;" transform=" matrix(1 0 0 1 0 0) "/>
		<path d="M 61.653 19.984 v -2.921 c 0 -1.421 -1.152 -2.573 -2.573 -2.573 H 41.672 v 5.494 H 61.653 z" style="stroke: none; stroke-width: 1; stroke-dasharray: none; stroke-linecap: butt; stroke-linejoin: miter; stroke-miterlimit: 10; fill: rgb(255,186,87); fill-rule: nonzero; opacity: 1;" transform=" matrix(1 0 0 1 0 0) " stroke-linecap="round" />
		<path d="M 62.148 19.984 H 49.374 c -1.4 0 -2.74 -0.566 -3.717 -1.57 l -3.13 -3.218 c -0.976 -1.004 -2.317 -1.57 -3.717 -1.57 H 27.867 c -1.589 0 -2.876 1.288 -2.876 2.876 v 3.481 v 21.77 c 0 1.589 1.288 2.876 2.876 2.876 h 6.713 h 6.008 h 8.832 h 6.008 h 6.72 c 1.589 0 2.876 -1.288 2.876 -2.876 V 22.86 C 65.025 21.272 63.737 19.984 62.148 19.984 z" style="stroke: none; stroke-width: 1; stroke-dasharray: none; stroke-linecap: butt; stroke-linejoin: miter; stroke-miterlimit: 10; fill: rgb(255,226,122); fill-rule: nonzero; opacity: 1;" transform=" matrix(1 0 0 1 0 0) " stroke-linecap="round" />
		<path d="M 11.152 70.505 c -0.552 0 -1 -0.447 -1 -1 v -34.75 c 0 -3.526 2.869 -6.395 6.395 -6.395 h 2.43 c 0.552 0 1 0.448 1 1 s -0.448 1 -1 1 h -2.43 c -2.423 0 -4.395 1.971 -4.395 4.395 v 34.75 C 12.152 70.058 11.704 70.505 11.152 70.505 z" style="stroke: none; stroke-width: 1; stroke-dasharray: none; stroke-linecap: butt; stroke-linejoin: miter; stroke-miterlimit: 10; fill: rgb(0,0,0); fill-rule: nonzero; opacity: 1;" transform=" matrix(1 0 0 1 0 0) " stroke-linecap="round" />
		<path d="M 78.848 70.505 c -0.553 0 -1 -0.447 -1 -1 v -34.75 c 0 -2.423 -1.971 -4.395 -4.394 -4.395 h -2.431 c -0.553 0 -1 -0.448 -1 -1 s 0.447 -1 1 -1 h 2.431 c 3.525 0 6.394 2.869 6.394 6.395 v 34.75 C 79.848 70.058 79.4 70.505 78.848 70.505 z" style="stroke: none; stroke-width: 1; stroke-dasharray: none; stroke-linecap: butt; stroke-linejoin: miter; stroke-miterlimit: 10; fill: rgb(0,0,0); fill-rule: nonzero; opacity: 1;" transform=" matrix(1 0 0 1 0 0) " stroke-linecap="round" />
		<path d="M 45 70.505 c -0.552 0 -1 -0.447 -1 -1 V 56.565 c 0 -0.553 0.448 -1 1 -1 s 1 0.447 1 1 v 12.939 C 46 70.058 45.552 70.505 45 70.505 z" style="stroke: none; stroke-width: 1; stroke-dasharray: none; stroke-linecap: butt; stroke-linejoin: miter; stroke-miterlimit: 10; fill: rgb(0,0,0); fill-rule: nonzero; opacity: 1;" transform=" matrix(1 0 0 1 0 0) " stroke-linecap="round" />
		<path d="M 55.152 81.935 H 34.848 c -0.552 0 -1 -0.447 -1 -1 v -11.43 c 0 -0.553 0.448 -1 1 -1 h 20.304 c 0.553 0 1 0.447 1 1 v 11.43 C 56.152 81.487 55.705 81.935 55.152 81.935 z M 35.848 79.935 h 18.304 v -9.43 H 35.848 V 79.935 z" style="stroke: none; stroke-width: 1; stroke-dasharray: none; stroke-linecap: butt; stroke-linejoin: miter; stroke-miterlimit: 10; fill: rgb(0,0,0); fill-rule: nonzero; opacity: 1;" transform=" matrix(1 0 0 1 0 0) " stroke-linecap="round" />
		<path d="M 89 81.935 H 68.696 c -0.553 0 -1 -0.447 -1 -1 v -11.43 c 0 -0.553 0.447 -1 1 -1 H 89 c 0.553 0 1 0.447 1 1 v 11.43 C 90 81.487 89.553 81.935 89 81.935 z M 69.696 79.935 H 88 v -9.43 H 69.696 V 79.935 z" style="stroke: none; stroke-width: 1; stroke-dasharray: none; stroke-linecap: butt; stroke-linejoin: miter; stroke-miterlimit: 10; fill: rgb(0,0,0); fill-rule: nonzero; opacity: 1;" transform=" matrix(1 0 0 1 0 0) " stroke-linecap="round" />
		<path d="M 21.304 81.935 H 1 c -0.552 0 -1 -0.447 -1 -1 v -11.43 c 0 -0.553 0.448 -1 1 -1 h 20.304 c 0.552 0 1 0.447 1 1 v 11.43 C 22.304 81.487 21.856 81.935 21.304 81.935 z M 2 79.935 h 18.304 v -9.43 H 2 V 79.935 z" style="stroke: none; stroke-width: 1; stroke-dasharray: none; stroke-linecap: butt; stroke-linejoin: miter; stroke-miterlimit: 10; fill: rgb(0,0,0); fill-rule: nonzero; opacity: 1;" transform=" matrix(1 0 0 1 0 0) " stroke-linecap="round" />
		<path d="M 62.017 45.518 H 27.983 c -2.126 0 -3.855 -1.729 -3.855 -3.855 V 16.594 c 0 -2.126 1.729 -3.855 3.855 -3.855 h 10.865 c 1.649 0 3.255 0.678 4.406 1.861 l 3.108 3.195 c 0 0 0 0 0 0 c 0.776 0.798 1.859 1.255 2.973 1.255 h 12.682 c 2.126 0 3.855 1.729 3.855 3.855 v 18.757 C 65.872 43.789 64.143 45.518 62.017 45.518 z M 27.983 14.739 c -1.023 0 -1.855 0.833 -1.855 1.855 v 25.068 c 0 1.023 0.833 1.855 1.855 1.855 h 34.034 c 1.023 0 1.855 -0.833 1.855 -1.855 V 22.906 c 0 -1.023 -0.832 -1.855 -1.855 -1.855 H 49.335 c -1.65 0 -3.256 -0.678 -4.406 -1.861 l -3.108 -3.195 c -0.776 -0.798 -1.86 -1.255 -2.973 -1.255 H 27.983 z" style="stroke: none; stroke-width: 1; stroke-dasharray: none; stroke-linecap: butt; stroke-linejoin: miter; stroke-miterlimit: 10; fill: rgb(0,0,0); fill-rule: nonzero; opacity: 1;" transform=" matrix(1 0 0 1 0 0) " stroke-linecap="round" />
		<path d="M 61.525 21.05 c -0.553 0 -1 -0.448 -1 -1 v -2.9 c 0 -0.857 -0.697 -1.554 -1.555 -1.554 H 41.687 c -0.552 0 -1 -0.448 -1 -1 s 0.448 -1 1 -1 h 17.284 c 1.96 0 3.555 1.594 3.555 3.554 v 2.9 C 62.525 20.603 62.078 21.05 61.525 21.05 z" style="stroke: none; stroke-width: 1; stroke-dasharray: none; stroke-linecap: butt; stroke-linejoin: miter; stroke-miterlimit: 10; fill: rgb(0,0,0); fill-rule: nonzero; opacity: 1;" transform=" matrix(1 0 0 1 0 0) " stroke-linecap="round" />
	</g>
</svg>