<?xml version="1.0" standalone="no"?>
<!DOCTYPE svg PUBLIC "-//W3C//DTD SVG 20010904//EN"
 "http://www.w3.org/TR/2001/REC-SVG-20010904/DTD/svg10.dtd">
<svg version="1.0" xmlns="http://www.w3.org/2000/svg"
 width="270.000000pt" height="187.000000pt" viewBox="0 0 270.000000 187.000000"
 preserveAspectRatio="xMidYMid meet">

<g transform="translate(0.000000,187.000000) scale(0.100000,-0.100000)"
fill="#000000" stroke="none">
<path d="M55 1860 c-8 -13 5 -13 25 0 13 8 13 10 -2 10 -9 0 -20 -4 -23 -10z"/>
<path d="M499 1850 c18 -16 27 -18 37 -9 24 19 16 29 -23 29 l-38 -1 24 -19z"/>
<path d="M560 1864 c0 -7 130 -174 136 -174 2 0 3 3 1 8 -2 7 6 12 18 12 3 0
1 -8 -4 -18 -7 -14 -6 -18 8 -19 10 -1 17 6 17 18 0 10 -4 19 -8 19 -4 0 -8 9
-8 19 0 11 -4 22 -9 25 -5 3 -23 31 -40 61 -30 52 -33 55 -71 55 -22 0 -40 -3
-40 -6z"/>
<path d="M908 1843 c-3 -16 -9 -37 -13 -47 -6 -15 -5 -17 5 -11 9 6 11 4 5 -5
-6 -10 -4 -12 11 -6 10 4 34 10 52 13 18 3 35 10 38 14 11 18 21 8 20 -18 0
-16 3 -48 7 -73 6 -43 6 -43 -4 -10 -18 58 -36 71 -91 67 -26 -2 -54 -10 -63
-17 -8 -7 -15 -9 -15 -5 0 4 8 14 18 21 9 7 12 14 6 14 -25 0 -119 -151 -110
-177 3 -6 -7 -21 -22 -33 l-27 -20 28 10 c18 6 27 6 27 -1 0 -14 -20 -50 -37
-67 -7 -7 -13 -19 -13 -27 0 -7 -3 -22 -6 -32 -5 -13 -2 -12 10 5 10 12 14 27
11 32 -3 6 -1 10 4 10 6 0 11 -9 11 -19 0 -11 5 -23 11 -27 8 -5 10 5 7 32 -3
23 1 50 9 67 15 29 14 67 -1 78 -5 4 -5 12 -1 19 6 9 10 9 17 -1 6 -10 7 -7 3
8 -3 13 -3 28 1 35 13 20 22 -23 11 -52 -6 -14 -7 -42 -3 -61 5 -28 14 -39 44
-54 20 -10 32 -20 25 -22 -6 -2 -25 3 -42 11 -22 12 -32 13 -37 4 -5 -7 -3 -8
6 -3 10 6 12 4 7 -9 -6 -15 -3 -17 17 -12 28 7 43 -18 25 -40 -6 -7 -15 -30
-19 -49 -6 -28 -5 -34 4 -26 7 6 15 8 18 6 3 -3 24 19 47 50 68 90 63 58 -6
-37 -39 -54 -36 -83 5 -43 24 24 27 25 32 9 5 -14 8 -10 13 15 4 19 7 48 7 66
0 17 3 35 8 39 4 4 7 11 7 14 0 4 10 22 23 40 20 27 21 32 7 32 -22 0 -9 19
21 30 14 6 24 18 24 29 0 11 5 23 10 26 6 3 10 19 10 35 0 23 17 44 93 114
l92 86 -157 0 c-116 0 -158 -3 -161 -12 -4 -10 -6 -10 -6 0 -2 23 -19 12 -23
-15z m20 -136 c-17 -15 -18 -18 -5 -14 14 5 17 1 17 -25 0 -29 -1 -30 -22 -15
-13 8 -22 21 -20 29 2 7 -10 0 -26 -15 -25 -24 -30 -26 -36 -12 -3 9 -2 14 3
11 10 -7 23 19 14 28 -4 3 -12 1 -19 -5 -9 -7 -12 -6 -10 5 3 24 14 30 30 17
11 -9 16 -9 22 0 5 8 3 9 -6 4 -9 -5 -11 -4 -6 4 6 9 11 9 24 -1 10 -8 13 -9
9 -1 -8 12 19 22 41 15 8 -3 5 -11 -10 -25z m132 -42 c0 -8 -4 -15 -10 -15 -5
0 -7 7 -4 15 4 8 8 15 10 15 2 0 4 -7 4 -15z m-20 -55 c0 -5 -5 -10 -11 -10
-5 0 -7 5 -4 10 3 6 8 10 11 10 2 0 4 -4 4 -10z"/>
<path d="M1847 1863 c-4 -3 -7 -13 -7 -22 0 -12 3 -11 13 3 12 16 16 17 35 5
18 -11 21 -20 16 -46 -4 -21 -2 -33 5 -33 6 0 8 7 5 15 -4 11 -2 13 9 10 8 -4
17 1 21 11 5 12 2 15 -11 10 -12 -4 -9 0 6 12 l24 19 -33 12 c-37 12 -73 14
-83 4z"/>
<path d="M1990 1862 c0 -4 14 -27 31 -50 39 -53 73 -56 109 -10 14 17 31 37
38 44 6 7 12 15 12 18 0 3 -43 6 -95 6 -52 0 -95 -4 -95 -8z"/>
<path d="M2210 1861 c0 -5 -6 -16 -13 -23 -15 -16 -47 -65 -47 -73 0 -3 20 17
45 45 50 56 52 60 30 60 -8 0 -15 -4 -15 -9z"/>
<path d="M2429 1853 c-13 -16 -12 -17 4 -4 9 7 17 15 17 17 0 8 -8 3 -21 -13z"/>
<path d="M2457 1853 c-8 -10 -15 -30 -14 -45 l2 -27 37 36 c32 31 38 34 44 19
5 -13 9 -14 20 -5 8 6 14 8 14 5 0 -10 -62 -62 -70 -59 -4 1 -7 -5 -7 -12 0
-8 9 -17 20 -21 10 -3 37 -23 59 -44 39 -39 77 -45 62 -11 -17 39 -17 84 1 97
19 14 51 4 67 -20 4 -6 8 15 8 47 l0 57 -44 0 c-24 0 -52 -3 -61 -6 -14 -6
-14 -8 -1 -23 9 -10 12 -22 7 -30 -10 -16 -31 -6 -31 13 0 8 -11 21 -24 29
-22 15 -25 15 -42 -4 -10 -12 -28 -26 -39 -32 -17 -9 -18 -8 -8 5 7 8 9 19 5
23 -4 5 -2 5 4 2 7 -4 17 0 24 8 19 22 -12 20 -33 -2z"/>
<path d="M245 1822 c-3 -9 -3 -13 1 -9 4 4 18 -3 31 -15 13 -12 23 -17 23 -12
0 6 -11 20 -24 31 -22 19 -25 20 -31 5z"/>
<path d="M1860 1820 c0 -5 5 -10 11 -10 5 0 7 5 4 10 -3 6 -8 10 -11 10 -2 0
-4 -4 -4 -10z"/>
<path d="M1957 1821 c1 -2 -4 -19 -12 -38 -13 -31 -13 -34 0 -30 13 5 25 -14
30 -48 1 -5 3 -14 4 -20 1 -5 6 -3 11 5 8 13 10 12 10 -2 0 -10 5 -18 11 -18
6 0 9 6 6 14 -4 10 4 18 24 25 40 14 37 26 -11 40 -22 6 -40 17 -40 24 0 7 -8
21 -18 32 -9 11 -16 18 -15 16z"/>
<path d="M2509 1803 c-13 -16 -12 -17 4 -4 9 7 17 15 17 17 0 8 -8 3 -21 -13z"/>
<path d="M167 1748 c-32 -35 -44 -55 -37 -62 5 -5 10 -22 10 -37 0 -19 6 -30
20 -34 23 -7 25 -18 10 -46 -8 -15 -7 -23 5 -36 9 -9 14 -24 12 -34 -5 -20 -3
-21 48 -23 17 -1 35 -5 40 -8 27 -16 75 -18 102 -5 16 9 42 13 58 10 23 -3 27
-2 15 6 -9 6 -10 11 -3 11 6 0 18 -7 27 -15 8 -9 17 -11 21 -5 3 5 -43 57
-102 115 -81 79 -105 108 -94 114 14 9 7 31 -10 31 -6 0 -7 -5 -4 -11 4 -6 -2
-5 -14 3 -11 7 -23 19 -26 27 -4 10 0 9 15 -4 31 -28 24 -2 -8 28 -15 15 -30
27 -33 27 -2 0 -26 -23 -52 -52z m99 -192 c9 -22 -23 -75 -43 -72 -22 4 -19
42 4 69 19 21 32 22 39 3z"/>
<path d="M1867 1783 c-10 -9 -9 -23 1 -23 5 0 9 7 9 15 0 17 -1 18 -10 8z"/>
<path d="M1980 1660 c0 -5 5 -10 10 -10 6 0 10 5 10 10 0 6 -4 10 -10 10 -5 0
-10 -4 -10 -10z"/>
<path d="M2285 1590 c3 -5 -15 -26 -38 -47 -39 -33 -43 -41 -34 -60 12 -27 30
-31 20 -5 -6 16 -6 16 11 -1 14 -14 21 -15 32 -6 8 7 28 9 48 5 26 -5 42 -1
75 21 22 14 41 29 41 32 0 9 -119 66 -140 67 -11 1 -17 -2 -15 -6z"/>
<path d="M694 1498 l-19 -23 23 19 c21 18 27 26 19 26 -2 0 -12 -10 -23 -22z"/>
<path d="M1940 1505 c-10 -12 -10 -18 0 -30 10 -12 9 -16 -6 -22 -11 -4 -25
-13 -32 -20 -8 -8 -23 -11 -38 -7 -18 5 -24 2 -24 -9 0 -25 17 -29 44 -12 24
16 25 16 40 -14 9 -16 16 -35 16 -41 0 -6 11 -23 25 -38 l26 -27 20 25 20 25
-6 -25 c-6 -21 -5 -23 6 -12 7 7 14 25 15 40 1 15 3 30 3 35 1 4 6 7 12 7 8 0
10 -16 6 -50 -4 -29 -2 -50 3 -50 6 0 10 21 10 46 0 37 3 45 15 40 21 -7 19 0
-5 24 -12 12 -25 18 -31 15 -12 -8 -40 10 -89 55 -35 31 -35 32 -8 27 18 -3
25 0 21 9 -2 7 -12 10 -20 7 -11 -4 -14 -2 -9 5 10 17 1 15 -14 -3z m56 -98
c2 -13 -2 -15 -14 -8 -10 4 -23 7 -30 5 -8 -1 -8 0 -1 3 8 4 7 8 -2 14 -9 5
-3 7 15 5 18 -2 30 -9 32 -19z m20 -48 l-16 -23 0 25 c0 30 10 43 23 30 6 -6
3 -18 -7 -32z m-31 -3 c0 -14 -4 -22 -11 -19 -9 3 -12 31 -5 52 3 12 15 -12
16 -33z"/>
<path d="M2426 1497 c-14 -11 -13 -12 9 -13 14 -1 25 2 25 6 0 16 -17 19 -34
7z"/>
<path d="M2236 1438 c3 -5 10 -6 15 -3 13 9 11 12 -6 12 -8 0 -12 -4 -9 -9z"/>
<path d="M687 1421 c-4 -17 -3 -21 5 -13 5 5 8 16 6 23 -3 8 -7 3 -11 -10z"/>
<path d="M1003 1422 c-18 -12 -21 -85 -3 -100 8 -8 10 -11 3 -8 -6 4 -13 0
-16 -6 -4 -10 -7 -10 -17 -1 -11 10 -16 9 -27 -5 -12 -16 -13 -16 -6 2 4 13 3
17 -5 12 -15 -9 -16 -46 -2 -46 6 0 4 -13 -5 -30 -9 -18 -11 -30 -5 -30 6 0
16 -12 22 -26 l12 -25 13 25 c14 26 43 26 43 0 0 -8 4 -14 9 -14 5 0 13 -9 16
-21 7 -21 32 -21 27 0 -1 7 2 10 7 6 6 -3 8 -20 6 -38 -4 -28 -4 -29 4 -7 5
14 10 21 11 15 1 -5 5 0 11 13 5 13 13 20 19 17 15 -9 9 73 -7 86 -15 13 -18
33 -4 25 6 -4 6 5 2 21 -8 29 -11 30 -47 19 -15 -4 -21 -2 -21 9 0 8 5 15 10
15 5 0 4 6 -2 14 -6 7 -9 20 -5 29 6 16 -11 57 -24 57 -4 0 -12 -4 -19 -8z
m22 -11 c3 -5 1 -12 -5 -16 -5 -3 -10 1 -10 9 0 18 6 21 15 7z"/>
<path d="M1269 1405 c-34 -25 -68 -84 -69 -117 0 -10 -4 -18 -9 -18 -5 0 -7
-9 -4 -20 5 -21 26 -17 21 3 -4 16 45 97 72 122 14 12 9 0 -14 -32 -20 -28
-39 -60 -41 -70 -2 -10 -7 -29 -11 -42 -6 -21 -4 -23 17 -19 14 2 31 -2 38
-10 11 -11 15 -11 21 -2 5 7 15 10 24 7 9 -4 15 -3 13 1 -1 4 1 8 6 10 8 2 8
-4 0 -35 -3 -13 -2 -31 2 -40 5 -10 7 -23 6 -29 -1 -7 6 -15 15 -18 14 -5 14
-9 3 -24 -13 -15 -12 -16 3 -4 9 8 23 10 29 6 8 -4 9 -3 5 4 -4 7 -2 12 3 12
6 0 11 -6 11 -12 0 -9 3 -9 8 -3 8 12 15 12 54 1 15 -5 35 -3 47 4 28 14 94
-7 86 -28 -3 -8 0 -10 7 -6 8 5 9 2 5 -10 -4 -10 -7 -20 -7 -23 0 -4 -10 2
-22 13 -12 10 -18 13 -14 7 13 -23 -4 -33 -29 -17 -13 8 -44 17 -69 18 l-46 3
27 -19 c25 -17 26 -19 6 -16 -12 2 -23 -1 -24 -7 -2 -5 -8 -16 -15 -22 -15
-15 -74 -6 -74 11 0 6 -5 4 -10 -4 -8 -13 -10 -12 -10 3 0 9 -4 17 -10 17 -5
0 -10 -5 -10 -11 0 -5 -4 -7 -10 -4 -5 3 -10 2 -10 -2 0 -5 -12 -10 -26 -11
-19 -1 -25 2 -21 13 4 10 1 12 -10 8 -12 -5 -14 -3 -9 8 4 8 -1 3 -13 -11
l-20 -25 5 30 c4 23 2 27 -7 18 -7 -7 -9 -22 -5 -38 4 -15 10 -24 14 -21 3 4
12 -8 18 -26 7 -18 13 -25 13 -15 1 10 9 17 20 17 10 0 30 9 45 21 21 17 26
18 26 5 0 -9 -6 -16 -14 -16 -8 0 -13 -7 -12 -16 0 -11 -7 -18 -21 -19 -13 -1
-26 -5 -30 -10 -5 -4 -1 -5 7 -3 20 7 50 -9 50 -26 0 -9 -8 -12 -22 -9 -21 4
-20 3 4 -13 26 -17 43 -42 35 -51 -2 -2 -16 8 -31 22 -29 27 -42 32 -29 13 11
-19 12 -38 2 -38 -5 0 -9 -11 -9 -24 0 -12 -5 -37 -11 -54 -8 -24 -15 -30 -35
-27 -13 1 -24 -2 -24 -6 0 -5 10 -9 23 -10 21 -1 21 -1 -2 -8 -14 -4 -26 -13
-29 -21 -3 -12 -2 -12 6 -1 16 22 50 -3 45 -32 -3 -14 2 -38 11 -55 10 -19 16
-57 16 -99 0 -62 1 -66 13 -43 7 14 20 24 28 23 9 -2 15 8 16 30 1 17 17 60
35 94 l32 62 17 -27 c9 -15 26 -36 39 -47 32 -29 53 -73 46 -100 -4 -15 -1
-25 10 -29 8 -3 13 -10 9 -16 -6 -10 29 -50 45 -50 11 0 13 12 10 48 -1 13 4
22 13 22 14 0 26 -23 32 -60 5 -29 23 -66 39 -79 19 -16 20 -8 4 22 -18 34
-37 136 -26 139 6 2 -2 18 -16 35 -30 36 -59 110 -51 131 3 8 -11 45 -31 83
-28 53 -37 81 -38 128 -1 34 -6 64 -10 68 -4 4 -4 -1 0 -12 6 -19 6 -19 -10
-4 -16 15 -16 18 11 46 39 43 49 56 49 68 0 6 8 11 17 13 12 2 15 -1 11 -12
-4 -12 0 -16 15 -16 15 0 21 6 21 23 1 19 2 20 13 6 7 -8 20 -18 30 -22 15 -6
16 -10 6 -29 l-11 -21 -13 23 -13 23 -6 -21 c-4 -12 -4 -26 -1 -32 3 -5 0 -10
-8 -10 -8 0 -17 -11 -19 -25 -7 -37 26 -33 42 4 7 17 21 31 32 33 17 2 21 11
22 45 1 22 -2 39 -6 36 -5 -2 -8 4 -8 14 -1 35 -48 73 -107 86 -13 3 -21 0
-20 -6 3 -17 -26 -18 -47 -2 -24 19 -10 69 22 73 27 4 28 14 2 30 -29 18 -25
36 6 28 15 -4 32 -2 40 5 11 9 14 8 14 -2 0 -11 2 -11 10 1 12 16 4 -25 -11
-68 -12 -32 -11 -36 6 -22 8 7 15 22 15 34 0 28 19 52 48 61 18 5 22 3 22 -18
0 -13 9 -32 19 -41 12 -11 18 -26 15 -41 -5 -28 11 -40 48 -36 33 3 68 -15 68
-35 0 -9 5 -12 11 -8 8 4 9 -1 4 -17 -7 -21 -6 -22 9 -7 9 9 16 23 16 32 0 35
21 23 32 -18 7 -26 16 -46 20 -46 18 0 6 -18 -15 -24 -13 -3 -35 -16 -50 -30
-22 -20 -28 -22 -38 -10 -18 22 -38 17 -57 -16 -17 -28 -19 -28 -36 -12 -17
16 -18 16 -7 -5 18 -35 14 -45 -11 -32 l-23 12 20 -23 20 -23 -28 5 c-16 3
-25 2 -20 -3 5 -5 21 -10 35 -11 34 -3 26 -18 -10 -19 -18 -1 -21 -3 -9 -6 13
-3 15 -8 7 -17 -8 -10 -4 -13 16 -10 20 2 24 -1 19 -14 -17 -44 -17 -72 -2
-72 10 0 14 -6 11 -15 -4 -9 0 -15 9 -15 9 0 19 -5 23 -12 5 -7 2 -9 -8 -6 -8
4 -20 3 -27 -2 -17 -10 8 -53 26 -46 7 3 15 1 18 -5 4 -5 3 -9 -2 -8 -23 4
-28 -5 -28 -46 0 -36 3 -45 18 -45 10 0 17 8 17 20 0 29 13 25 34 -10 9 -17
22 -27 28 -24 7 4 8 2 4 -5 -10 -16 3 -51 20 -51 17 0 19 37 2 42 -7 3 -11 21
-10 44 0 21 -4 52 -10 68 l-12 30 -12 -29 -11 -29 -8 25 c-10 29 -9 34 8 34
17 1 12 55 -7 74 -14 13 -12 17 17 37 l32 22 23 -67 c25 -71 30 -89 31 -108 1
-18 18 -16 25 2 7 18 -5 54 -19 54 -9 1 -15 32 -15 89 0 13 -4 21 -9 18 -5 -3
-11 4 -15 17 -7 26 -7 67 1 50 11 -30 23 -9 18 32 -4 29 -2 45 5 45 14 0 19
-15 24 -75 2 -27 8 -51 13 -52 14 -5 24 36 17 64 -4 13 -2 23 5 23 6 0 8 -8 5
-17 -4 -10 3 -3 15 15 12 18 21 39 21 46 0 13 29 31 37 22 2 -2 -7 -16 -21
-31 -15 -16 -26 -33 -26 -40 0 -7 -2 -28 -6 -46 l-5 -34 14 30 c8 17 30 48 49
70 33 37 37 39 62 27 17 -7 26 -19 26 -34 0 -21 -1 -21 -13 -4 -11 15 -17 16
-35 7 -22 -11 -52 -49 -52 -64 0 -13 43 4 57 22 11 13 12 9 8 -23 -5 -43 -8
-49 -31 -52 -9 -2 -14 3 -10 11 5 14 -17 28 -28 18 -10 -10 -7 -71 4 -78 19
-12 47 6 68 44 12 21 22 47 23 57 0 11 3 13 6 7 8 -22 -16 -79 -47 -108 -23
-22 -35 -27 -59 -22 -23 5 -31 3 -31 -7 0 -22 47 -28 75 -10 40 26 80 119 80
186 -1 48 2 56 17 55 13 -1 18 -10 18 -29 0 -15 5 -28 10 -28 6 0 9 -12 8 -27
-3 -26 0 -28 27 -24 l30 3 -29 -26 c-20 -19 -26 -33 -22 -48 3 -12 0 -29 -7
-37 -10 -12 -9 -14 6 -8 15 6 17 3 12 -16 -5 -20 -4 -19 18 6 l24 29 20 -28
c19 -26 23 -27 48 -16 14 7 23 8 20 2 -3 -5 -1 -10 4 -10 6 0 11 -5 11 -12 0
-9 -3 -9 -12 0 -7 7 -16 12 -22 12 -6 0 -5 -5 2 -12 7 -7 12 -17 12 -22 0 -6
-5 -4 -10 4 -5 8 -10 10 -10 4 0 -6 9 -23 20 -37 11 -14 20 -30 20 -36 0 -8 6
-8 19 1 16 10 23 7 46 -18 l27 -29 -19 35 c-10 19 -21 37 -25 40 -9 7 -48 99
-48 114 0 6 -13 38 -29 71 -26 52 -28 63 -16 80 7 11 20 19 29 17 9 -2 16 2
16 8 0 5 5 10 12 10 9 0 9 -3 0 -12 -15 -15 -16 -54 -2 -63 6 -3 7 -17 4 -29
-4 -17 -1 -25 13 -29 10 -2 25 -8 34 -11 24 -10 34 23 12 41 -10 8 -12 11 -4
7 11 -5 13 1 9 30 -3 26 0 36 10 36 7 0 10 5 7 10 -4 6 -11 7 -17 4 -7 -4 -8
-2 -4 4 4 7 2 20 -3 29 -9 16 -11 15 -11 -7 -1 -23 -2 -23 -10 -5 -5 11 -9 16
-10 10 0 -5 -9 9 -19 31 -11 23 -27 46 -36 51 -15 9 -11 15 26 50 41 40 42 41
20 52 -19 11 -26 8 -58 -28 -20 -23 -42 -41 -50 -41 -7 0 -13 -9 -13 -20 0
-11 -3 -20 -7 -20 -17 1 -40 26 -35 38 2 7 -3 21 -11 30 -8 9 -18 33 -22 53
-7 39 -21 66 -29 58 -3 -3 -2 -36 2 -75 7 -65 6 -70 -12 -72 -27 -2 -41 -18
-22 -25 8 -3 18 -2 21 3 4 6 12 10 18 10 7 0 -3 -10 -20 -21 -18 -12 -33 -24
-33 -28 0 -4 -15 -7 -33 -7 -26 0 -33 4 -33 19 1 20 -8 27 -61 49 -18 7 -33
19 -33 25 0 7 -11 13 -25 13 -14 0 -25 6 -25 13 0 16 20 46 20 30 0 -17 43
-12 56 6 15 20 7 41 -20 50 -19 8 -21 16 -21 103 0 74 -4 100 -18 121 -23 36
-45 44 -60 22 -20 -26 -78 -17 -94 15 -7 13 -20 28 -30 31 -25 10 -101 10
-145 0 -29 -7 -38 -5 -42 6 -7 18 -78 13 -103 -8 -10 -8 -28 -20 -41 -27 -19
-11 -23 -10 -29 5 -7 21 -33 53 -43 53 -3 0 -22 -11 -41 -25z m346 -45 c8 -24
21 -26 29 -5 10 27 26 16 26 -19 0 -37 -39 -79 -65 -70 -14 6 -31 51 -25 69 1
6 2 18 2 28 -1 24 25 22 33 -3z m-125 -50 c12 -8 11 -10 -7 -10 -12 0 -25 5
-28 10 -8 13 15 13 35 0z m-77 -70 c3 -11 1 -18 -4 -14 -5 3 -9 12 -9 20 0 20
7 17 13 -6z m327 -62 c0 -11 -31 -10 -50 2 -10 6 -5 9 18 8 18 -1 32 -5 32
-10z m-338 -22 c-16 -18 -16 -18 4 -8 16 9 21 8 21 -3 0 -8 -3 -13 -6 -11 -3
2 -12 -2 -19 -10 -10 -11 -10 -14 0 -15 10 0 10 -2 1 -6 -7 -2 -25 7 -40 21
-15 14 -22 26 -16 26 7 0 10 7 7 15 -5 12 1 15 29 13 34 -3 35 -4 19 -22z m38
-52 c0 -8 -5 -12 -10 -9 -6 4 -8 11 -5 16 9 14 15 11 15 -7z m480 -29 c7 -9 8
-15 2 -15 -5 0 -12 7 -16 15 -3 8 -4 15 -2 15 2 0 9 -7 16 -15z m-40 -145 c0
-5 -9 -8 -20 -7 -22 1 -27 13 -7 20 14 5 27 -1 27 -13z m-512 4 c31 -9 27 -24
-7 -24 -16 0 -33 -6 -39 -13 -8 -9 0 -11 36 -9 43 3 45 2 27 -10 -26 -18 -75
-22 -76 -5 -2 16 1 39 6 55 5 13 18 15 53 6z m892 -30 c0 -2 -9 -8 -19 -13
-16 -9 -18 -8 -14 8 3 12 11 17 19 14 8 -3 14 -7 14 -9z m58 -2 c5 -16 -23
-15 -37 1 -8 11 -6 13 11 12 12 -1 24 -7 26 -13z m-549 -49 c1 -6 -7 -10 -16
-8 -10 1 -17 10 -17 19 1 9 -2 16 -7 16 -16 0 -9 18 9 22 16 3 28 -16 31 -49z
m51 12 c1 6 6 -3 11 -20 9 -31 -1 -52 -21 -40 -8 5 -8 10 0 20 8 9 8 15 0 20
-5 3 -10 16 -9 28 0 21 1 21 9 2 5 -11 9 -15 10 -10z m385 -9 c12 -12 12 -16
-2 -28 -15 -11 -16 -11 -10 5 3 9 2 17 -3 17 -6 0 -10 5 -10 10 0 14 9 12 25
-4z m63 -9 c2 -8 -5 -20 -15 -25 -16 -9 -18 -7 -17 16 3 36 2 34 17 30 6 -3
13 -12 15 -21z m-887 -18 c-12 -13 -21 -26 -21 -31 0 -15 -28 -8 -34 9 -7 18
9 33 36 33 9 0 20 5 23 11 4 6 9 8 12 5 3 -2 -4 -15 -16 -27z m370 -22 c-10
-9 -11 -8 -5 6 3 10 9 15 12 12 3 -3 0 -11 -7 -18z m19 -32 c-10 -12 -10 -21
-1 -41 8 -18 8 -23 0 -18 -6 3 -15 0 -20 -7 -4 -7 -11 -10 -15 -6 -4 3 -2 12
4 20 6 7 9 23 6 34 -4 15 -1 23 13 26 10 3 20 5 22 6 2 0 -2 -6 -9 -14z m518
-73 c0 -9 3 -26 6 -37 l8 -20 -13 20 c-7 11 -21 26 -31 33 -15 11 -16 17 -7
28 14 17 38 2 37 -24z"/>
<path d="M2255 1420 c-3 -5 -1 -10 4 -10 6 0 11 5 11 10 0 6 -2 10 -4 10 -3 0
-8 -4 -11 -10z"/>
<path d="M255 1410 c3 -5 8 -10 11 -10 2 0 4 5 4 10 0 6 -5 10 -11 10 -5 0 -7
-4 -4 -10z"/>
<path d="M736 1387 c3 -10 9 -15 12 -12 3 3 0 11 -7 18 -10 9 -11 8 -5 -6z"/>
<path d="M1940 1304 c0 -8 5 -12 10 -9 6 4 8 11 5 16 -9 14 -15 11 -15 -7z"/>
<path d="M786 1275 c-9 -26 -7 -32 5 -12 6 10 9 21 6 23 -2 3 -7 -2 -11 -11z"/>
<path d="M1995 1250 c-3 -5 -1 -10 4 -10 6 0 11 5 11 10 0 6 -2 10 -4 10 -3 0
-8 -4 -11 -10z"/>
<path d="M817 1230 c3 -11 7 -20 9 -20 2 0 4 9 4 20 0 11 -4 20 -9 20 -5 0 -7
-9 -4 -20z"/>
<path d="M1226 1192 c-10 -16 9 -30 21 -17 10 10 9 14 -2 19 -8 3 -16 2 -19
-2z"/>
<path d="M850 1171 c-6 -12 -17 -21 -25 -21 -8 0 -15 -4 -15 -10 0 -5 6 -10
13 -10 8 0 7 -4 -3 -10 -13 -9 -13 -10 1 -10 8 0 26 11 40 26 21 22 21 24 4
18 -18 -7 -19 -6 -6 9 8 10 11 20 8 23 -3 3 -10 -4 -17 -15z"/>
<path d="M1515 1161 c-3 -5 -1 -12 5 -16 5 -3 10 1 10 9 0 18 -6 21 -15 7z"/>
<path d="M647 1140 c3 -11 9 -17 15 -14 5 3 4 12 -3 20 -16 19 -18 18 -12 -6z"/>
<path d="M610 1137 c0 -10 8 -17 18 -17 9 0 13 4 7 8 -5 4 -13 11 -17 16 -5 5
-8 2 -8 -7z"/>
<path d="M688 1128 c-7 -13 -11 -27 -9 -33 1 -5 -3 -4 -10 3 -17 16 -29 15
-29 -2 0 -18 6 -22 53 -30 43 -8 51 9 12 24 -25 9 -25 11 -9 35 9 14 14 25 11
25 -4 0 -12 -10 -19 -22z"/>
<path d="M481 1125 c-24 -12 -24 -13 -3 -24 24 -13 62 -15 62 -3 0 5 -8 16
-17 25 -15 13 -22 13 -42 2z"/>
<path d="M1286 1124 c-4 -9 -4 -19 -1 -22 2 -3 7 3 11 12 4 9 4 19 1 22 -2 3
-7 -3 -11 -12z"/>
<path d="M583 1073 c-18 -18 -19 -25 -9 -39 13 -17 42 -11 31 6 -3 5 1 15 8
22 10 10 11 16 3 23 -7 7 -18 3 -33 -12z"/>
<path d="M1665 1090 c3 -5 8 -10 11 -10 2 0 4 5 4 10 0 6 -5 10 -11 10 -5 0
-7 -4 -4 -10z"/>
<path d="M1315 1080 c-3 -5 -1 -10 6 -10 7 0 10 -11 7 -30 -3 -18 0 -30 6 -30
7 0 10 15 8 40 -4 39 -14 50 -27 30z"/>
<path d="M860 1054 c0 -20 8 -38 25 -52 27 -24 32 -42 13 -42 -9 0 -8 -4 2
-11 11 -8 9 -9 -10 -3 -31 8 -41 23 -31 43 9 17 -23 79 -32 64 -3 -5 -2 -15 4
-23 14 -24 10 -35 -6 -14 -12 16 -14 16 -15 3 0 -9 9 -24 20 -34 11 -10 18
-20 15 -23 -3 -3 0 -11 6 -19 9 -9 8 -13 0 -13 -6 0 -11 4 -11 8 0 4 -16 14
-36 21 -35 13 -36 14 -32 61 3 44 1 47 -13 34 -9 -8 -18 -11 -22 -8 -3 3 -15
3 -27 -1 -19 -6 -21 -12 -17 -53 3 -26 3 -41 0 -34 -2 6 -18 12 -34 12 -17 0
-28 4 -24 10 3 5 -7 12 -22 16 -15 4 -36 14 -46 22 -21 19 -27 14 -16 -15 5
-13 16 -23 26 -23 14 0 15 -2 5 -9 -11 -7 -11 -9 2 -14 9 -4 16 -2 16 3 0 14
13 12 36 -5 18 -15 18 -15 0 -8 -14 4 -17 3 -12 -6 13 -21 18 -71 7 -71 -7 0
-7 -9 0 -27 15 -39 19 -83 9 -83 -5 0 -12 5 -15 10 -4 6 -11 7 -17 4 -7 -4 -8
-2 -4 5 4 6 12 9 17 6 18 -12 8 13 -16 39 -29 31 -30 39 -10 56 21 18 19 47
-6 60 -25 14 -36 6 -20 -14 10 -12 9 -20 -6 -40 -10 -13 -26 -29 -36 -35 -15
-10 -20 -7 -32 23 -15 36 -41 51 -68 41 -10 -5 -15 -1 -14 12 2 12 -4 17 -17
15 -13 -2 -16 1 -10 10 4 7 -7 -2 -25 -21 -34 -36 -45 -53 -61 -96 -9 -23 -8
-26 4 -22 21 8 25 -2 26 -59 1 -65 -3 -86 -18 -102 -16 -18 -2 -82 18 -82 10
0 40 57 40 76 0 30 21 22 40 -15 21 -42 50 -48 50 -9 0 10 -5 16 -10 13 -6 -4
-7 -11 -4 -17 4 -6 2 -8 -4 -4 -16 9 -43 67 -36 77 3 5 -6 9 -20 9 -28 0 -42
15 -24 26 8 5 6 10 -8 15 -16 6 -15 8 9 8 18 1 27 -4 27 -15 0 -8 5 -12 10 -9
6 4 8 9 6 13 -6 10 37 95 50 99 10 3 70 -45 63 -51 -2 -1 -21 -13 -41 -25 -21
-12 -38 -29 -38 -36 0 -26 42 -85 61 -85 10 0 24 -10 30 -22 10 -19 13 -20 23
-6 9 12 17 13 29 7 19 -11 22 -2 7 21 -5 8 -12 11 -16 7 -10 -10 -34 13 -34
33 0 22 26 46 32 29 3 -9 9 -9 26 0 15 8 22 8 22 1 0 -8 6 -8 20 0 11 6 20 15
20 21 0 6 -5 7 -12 3 -7 -4 -8 -3 -4 5 6 9 11 9 21 1 10 -8 15 -7 19 2 3 7 4
2 1 -12 -15 -64 -21 -129 -14 -146 4 -10 8 -46 9 -79 1 -33 5 -51 7 -41 3 11
12 26 20 34 9 9 12 26 8 48 -4 25 -1 36 10 40 8 4 15 18 15 33 1 25 1 26 16 6
8 -11 19 -27 24 -35 12 -22 21 -7 25 41 2 28 1 38 -5 29 -7 -12 -12 -12 -22
-2 -6 6 -9 12 -5 12 4 0 3 8 -2 18 -6 11 -6 24 0 33 7 11 9 11 9 -3 0 -10 3
-18 8 -18 4 0 7 11 7 25 0 29 -3 30 -32 10 -15 -11 -28 -12 -45 -6 -23 10 -23
10 -1 10 12 1 25 6 28 11 3 6 15 10 26 10 12 0 23 10 29 25 5 14 17 36 26 50
13 20 20 23 35 14 10 -5 19 -6 19 -1 0 5 -12 15 -26 22 -22 13 -23 15 -8 21
12 4 25 -2 37 -15 18 -20 18 -20 12 -1 -10 31 11 6 39 -48 32 -59 32 -58 2
-132 -13 -33 -30 -79 -36 -102 -7 -23 -33 -73 -57 -110 -32 -50 -43 -75 -39
-94 3 -14 0 -31 -6 -37 -8 -8 -7 -15 4 -26 13 -13 17 -10 32 20 9 20 11 32 5
28 -6 -3 -15 0 -20 7 -11 18 -11 32 0 25 5 -4 13 8 16 26 7 29 9 30 20 14 13
-17 14 -17 24 2 7 12 7 22 0 29 -13 13 -1 43 15 37 20 -8 66 45 65 75 -1 26
-1 26 -15 -6 -22 -51 -37 -52 -29 -2 10 64 15 79 27 76 9 -2 41 94 33 102 -6
6 20 29 28 24 4 -2 7 -14 6 -26 0 -21 -1 -21 -8 -2 -7 17 -8 17 -13 -8 -3 -15
-3 -25 0 -23 3 3 11 -2 17 -11 11 -15 13 -13 20 15 3 17 11 35 17 38 6 4 8 2
4 -4 -3 -6 -2 -13 4 -17 6 -3 13 2 16 12 3 10 14 34 24 55 l18 36 -24 6 c-13
4 -24 11 -24 18 0 6 -8 17 -17 24 -17 13 -17 15 -2 27 14 10 14 14 3 25 -8 7
-16 12 -19 11 -3 0 -16 6 -28 14 -12 7 -32 13 -44 12 -12 -1 -20 2 -17 6 2 4
-1 9 -7 11 -7 2 -13 15 -15 29 -1 13 -3 28 -3 32 -1 5 -5 6 -11 2 -5 -3 -7
-12 -4 -19 3 -8 1 -17 -5 -21 -6 -3 -11 2 -11 12 0 10 -5 25 -10 33 -7 11 -10
8 -10 -16z m-103 -56 c-3 -7 -5 -2 -5 12 0 14 2 19 5 13 2 -7 2 -19 0 -25z
m33 -61 c0 -7 -9 -18 -21 -25 -21 -13 -21 -13 -3 12 22 29 24 31 24 13z m-50
-31 c0 -3 -4 -8 -10 -11 -5 -3 -10 -1 -10 4 0 6 5 11 10 11 6 0 10 -2 10 -4z
m240 -107 c0 -6 -11 3 -25 19 -14 17 -25 34 -25 38 1 12 50 -45 50 -57z m-408
-15 c-4 -21 -4 -21 -32 5 -19 18 -24 30 -18 38 15 19 56 -15 50 -43z m115 10
c-3 -3 -12 -4 -19 -1 -8 3 -5 6 6 6 11 1 17 -2 13 -5z m-350 -196 c-3 -7 -5
-2 -5 12 0 14 2 19 5 13 2 -7 2 -19 0 -25z m573 -68 c0 -5 -4 -10 -10 -10 -5
0 -10 5 -10 10 0 6 5 10 10 10 6 0 10 -4 10 -10z"/>
<path d="M982 1057 c-13 -16 10 -38 29 -27 8 6 16 4 21 -3 4 -6 10 -8 15 -4
11 12 -10 40 -34 43 -11 2 -25 -2 -31 -9z"/>
<path d="M325 1054 c-5 -1 -27 -5 -47 -9 -29 -4 -38 -11 -38 -26 0 -20 1 -20
30 -2 26 15 32 15 39 4 7 -11 11 -9 21 9 12 23 11 29 -5 24z"/>
<path d="M626 1036 c-10 -17 -12 -27 -5 -31 14 -9 20 -2 23 29 4 32 2 32 -18
2z"/>
<path d="M2425 1050 c11 -5 27 -9 35 -9 13 -1 13 0 0 9 -8 5 -24 9 -35 9 l-20
0 20 -9z"/>
<path d="M1682 1010 c-10 -16 -9 -18 10 -15 28 6 31 10 15 23 -10 8 -16 6 -25
-8z"/>
<path d="M1835 1020 c-3 -5 -1 -10 4 -10 6 0 11 5 11 10 0 6 -2 10 -4 10 -3 0
-8 -4 -11 -10z"/>
<path d="M2190 1020 c0 -5 7 -10 16 -10 8 0 12 -4 9 -10 -3 -5 3 -10 15 -10
18 0 19 3 10 20 -11 20 -50 28 -50 10z"/>
<path d="M2420 1019 c0 -5 5 -7 10 -4 6 3 10 8 10 11 0 2 -4 4 -10 4 -5 0 -10
-5 -10 -11z"/>
<path d="M2460 1016 c0 -9 -4 -15 -9 -12 -5 3 -11 -1 -15 -9 -3 -9 0 -15 9
-15 14 0 31 37 21 47 -3 4 -6 -1 -6 -11z"/>
<path d="M185 1010 c-3 -6 1 -7 9 -4 18 7 21 14 7 14 -6 0 -13 -4 -16 -10z"/>
<path d="M420 995 c0 -8 4 -15 10 -15 5 0 7 7 4 15 -4 8 -8 15 -10 15 -2 0 -4
-7 -4 -15z"/>
<path d="M2370 990 c-20 -15 -21 -20 -8 -20 9 0 20 5 24 11 9 15 44 -30 37
-48 -3 -7 -9 -11 -13 -8 -4 3 -13 -2 -19 -9 -10 -12 -9 -14 6 -10 24 5 46 -13
67 -58 11 -22 23 -35 31 -32 7 3 16 1 20 -5 3 -6 -1 -11 -10 -11 -13 0 -15 -8
-11 -45 3 -25 10 -54 16 -65 5 -10 11 -40 11 -67 1 -49 3 -47 14 20 3 20 10
37 15 37 18 0 70 -53 70 -71 0 -10 5 -19 12 -19 7 0 25 -15 40 -32 25 -30 28
-31 28 -11 0 14 -34 55 -95 116 -103 103 -122 139 -58 106 23 -12 41 -15 46
-10 13 13 0 44 -14 36 -6 -4 -26 7 -44 25 -18 18 -37 30 -42 27 -4 -3 -9 18
-11 47 -2 49 -23 83 -43 70 -8 -5 -11 3 -8 22 1 7 -22 24 -31 24 -3 0 -16 -9
-30 -20z m85 -80 c3 -6 -1 -7 -9 -4 -18 7 -21 14 -7 14 6 0 13 -4 16 -10z"/>
<path d="M385 990 c-3 -5 -2 -10 4 -10 5 0 13 5 16 10 3 6 2 10 -4 10 -5 0
-13 -4 -16 -10z"/>
<path d="M230 983 c-8 -2 -27 -21 -42 -43 -22 -30 -28 -50 -28 -89 0 -32 -8
-67 -20 -91 -25 -49 -25 -64 -1 -57 16 4 22 -2 28 -27 l7 -31 6 39 c3 23 11
41 20 44 12 4 13 2 3 -9 -7 -7 -13 -27 -12 -44 l1 -30 8 34 c4 18 13 37 20 41
16 10 -15 21 -37 13 -11 -4 -14 -3 -9 5 4 7 14 12 22 12 8 0 13 3 13 8 -3 20
3 30 23 35 12 4 19 9 15 13 -4 4 -2 13 4 20 7 9 7 19 1 30 -9 15 -11 14 -27
-9 -19 -30 -47 -26 -41 6 3 12 5 28 5 36 1 10 10 12 35 8 32 -5 35 -3 45 25 6
17 11 35 11 39 0 12 -33 26 -50 22z"/>
<path d="M1517 929 c12 -12 25 -20 28 -17 3 3 -7 13 -22 23 l-28 17 22 -23z"/>
<path d="M1491 903 c14 -24 49 -47 49 -34 0 5 -14 20 -31 32 -29 20 -30 20
-18 2z"/>
<path d="M1133 855 c0 -30 3 -55 8 -55 4 0 6 6 3 14 -3 8 0 24 6 36 l12 22 15
-21 c8 -12 19 -18 25 -15 7 5 9 0 6 -14 -4 -12 -2 -20 3 -16 15 9 10 30 -11
49 -11 10 -18 20 -15 23 8 9 -16 32 -34 32 -13 0 -16 -12 -18 -55z"/>
<path d="M2440 834 c0 -3 7 -12 15 -20 16 -17 18 -14 9 10 -6 15 -24 23 -24
10z"/>
<path d="M1194 761 c1 -17 26 -28 26 -11 0 6 -4 9 -9 5 -5 -3 -11 0 -14 7 -2
9 -4 8 -3 -1z"/>
<path d="M876 735 c-4 -12 -1 -16 11 -13 18 3 21 20 5 26 -5 1 -12 -4 -16 -13z"/>
<path d="M2470 745 c0 -5 5 -17 10 -25 5 -8 10 -10 10 -5 0 6 -5 17 -10 25 -5
8 -10 11 -10 5z"/>
<path d="M976 683 c-4 -16 -9 -36 -13 -47 -3 -12 -1 -16 6 -12 6 4 11 3 11 -3
0 -6 7 -8 15 -5 8 4 21 1 29 -5 23 -19 31 34 8 56 -45 44 -49 45 -56 16z"/>
<path d="M1110 695 c0 -8 9 -15 20 -15 13 0 18 5 14 15 -4 8 -12 15 -20 15 -8
0 -14 -7 -14 -15z"/>
<path d="M2120 665 c-24 -14 -24 -14 -4 -15 12 0 24 7 28 15 6 18 7 18 -24 0z"/>
<path d="M2480 671 c0 -6 5 -13 10 -16 6 -3 10 1 10 9 0 9 -4 16 -10 16 -5 0
-10 -4 -10 -9z"/>
<path d="M600 641 c0 -5 5 -13 10 -16 6 -3 10 -2 10 4 0 5 -4 13 -10 16 -5 3
-10 2 -10 -4z"/>
<path d="M2470 608 c0 -19 2 -20 10 -8 8 13 10 12 10 -4 0 -14 3 -17 10 -10
14 14 2 44 -16 44 -8 0 -14 -10 -14 -22z"/>
<path d="M1944 595 c11 -8 23 -15 28 -15 4 0 8 -9 8 -20 0 -11 -5 -20 -11 -20
-5 0 -8 4 -5 8 2 4 0 14 -5 22 -7 11 -8 8 -5 -10 7 -40 17 -60 31 -60 7 0 22
-3 32 -7 17 -7 17 -6 1 19 -9 14 -20 41 -23 62 -7 32 -10 36 -39 36 -29 -1
-30 -1 -12 -15z"/>
<path d="M2562 561 c25 -32 54 -54 93 -72 48 -22 56 -17 24 14 -30 30 -135 82
-117 58z"/>
<path d="M490 494 c0 -5 7 -19 15 -30 8 -10 15 -14 15 -8 0 5 -7 19 -15 30 -8
10 -15 14 -15 8z"/>
<path d="M1985 462 c-12 -13 -3 -21 25 -20 36 1 41 26 5 26 -13 0 -27 -3 -30
-6z"/>
<path d="M2032 410 c0 -14 2 -19 5 -12 2 6 2 18 0 25 -3 6 -5 1 -5 -13z"/>
<path d="M1830 395 c6 -7 8 -21 5 -31 -3 -11 1 -7 8 8 10 23 16 26 26 15 10
-10 11 -9 6 4 -3 9 -17 17 -31 17 -18 0 -22 -4 -14 -13z"/>
<path d="M1851 348 c1 -7 5 -24 9 -38 8 -24 8 -24 9 7 1 17 -3 35 -9 38 -5 3
-10 0 -9 -7z"/>
<path d="M770 286 c-7 -21 -10 -40 -7 -42 9 -9 35 54 27 66 -5 8 -12 -1 -20
-24z"/>
<path d="M1590 315 c0 -5 5 -17 10 -25 5 -8 10 -10 10 -5 0 6 -5 17 -10 25 -5
8 -10 11 -10 5z"/>
<path d="M1878 284 c-5 -4 -8 -19 -8 -33 1 -23 2 -24 11 -8 11 19 9 53 -3 41z"/>
<path d="M777 222 c-15 -7 -25 -17 -22 -23 9 -14 45 -11 51 6 10 25 0 31 -29
17z"/>
<path d="M1893 228 c3 -9 1 -19 -6 -22 -7 -2 -4 -5 6 -5 20 -1 21 7 6 29 -9
13 -10 13 -6 -2z"/>
</g>
</svg>
