<svg xmlns="http://www.w3.org/2000/svg" xmlns:xlink="http://www.w3.org/1999/xlink" version="1.1" width="256" height="256" viewBox="0 0 256 256" xml:space="preserve">

<defs>
</defs>
<g style="stroke: none; stroke-width: 0; stroke-dasharray: none; stroke-linecap: butt; stroke-linejoin: miter; stroke-miterlimit: 10; fill: none; fill-rule: nonzero; opacity: 1;" transform="translate(1.4065934065934016 1.4065934065934016) scale(2.81 2.81)" >
	<polygon points="55.81,48.22 67,52.71 67,37.29 55.81,41.78 " style="stroke: none; stroke-width: 1; stroke-dasharray: none; stroke-linecap: butt; stroke-linejoin: miter; stroke-miterlimit: 10; fill: rgb(0,0,0); fill-rule: nonzero; opacity: 1;" transform="  matrix(1 0 0 1 0 0) "/>
	<path d="M 45 0 C 20.147 0 0 20.147 0 45 c 0 24.853 20.147 45 45 45 s 45 -20.147 45 -45 C 90 20.147 69.853 0 45 0 z M 71 55.663 c 0 0.664 -0.329 1.284 -0.879 1.656 c -0.336 0.228 -0.728 0.344 -1.121 0.344 c -0.252 0 -0.504 -0.048 -0.744 -0.144 l -12.448 -4.99 v 4.873 c 0 1.104 -0.896 2 -2 2 H 21 c -1.104 0 -2 -0.896 -2 -2 V 32.598 c 0 -1.104 0.896 -2 2 -2 h 32.808 c 1.104 0 2 0.896 2 2 v 4.873 l 12.448 -4.99 c 0.615 -0.248 1.314 -0.173 1.865 0.2 C 70.671 33.053 71 33.673 71 34.337 V 55.663 z" style="stroke: none; stroke-width: 1; stroke-dasharray: none; stroke-linecap: butt; stroke-linejoin: miter; stroke-miterlimit: 10; fill: rgb(0,0,0); fill-rule: nonzero; opacity: 1;" transform=" matrix(1 0 0 1 0 0) " stroke-linecap="round" />
	<polygon points="51.81,34.6 23,34.6 23,55.4 51.81,55.4 51.81,49.57 51.81,40.43 " style="stroke: none; stroke-width: 1; stroke-dasharray: none; stroke-linecap: butt; stroke-linejoin: miter; stroke-miterlimit: 10; fill: rgb(0,0,0); fill-rule: nonzero; opacity: 1;" transform="  matrix(1 0 0 1 0 0) "/>
</g>
</svg>